<svg width="190" height="222" viewBox="0 0 190 222" fill="none" xmlns="http://www.w3.org/2000/svg">
<g clip-path="url(#clip0_103_6)">
<rect width="190" height="222" fill="black"/>
<path d="M37.0349 132.095L48.1294 77.5638L59.2881 78.0217L55.5703 96.2953C56.3446 96.2011 57.3074 96.1704 58.4586 96.2033C59.668 96.1976 60.8045 96.303 61.868 96.5194C64.962 97.1488 67.4356 98.1052 69.289 99.3885C71.2005 100.633 72.6032 102.152 73.4971 103.945C74.4393 105.748 74.9357 107.762 74.9863 109.987C75.0854 112.222 74.8693 114.645 74.3382 117.256L69.9565 138.793L59.1518 136.594L63.268 116.363C63.9761 112.882 64.0185 110.323 63.395 108.686C62.8199 107.059 61.3238 105.999 58.9067 105.507C57.9398 105.311 57.0016 105.22 56.0921 105.237C55.2408 105.215 54.457 105.231 53.7409 105.287L47.8396 134.293L37.0349 132.095Z" fill="white"/>
<path d="M61.6542 123.87L71.7887 129.96L55.3027 208.478L45.034 202.308L61.6542 123.87Z" fill="white"/>
<path d="M76.5778 127.007L86.6865 133.081L70.2426 211.399L60.0001 205.245L76.5778 127.007Z" fill="white"/>
<path d="M137.54 44.0754L147.635 50.1415L131.213 128.359L120.983 122.213L137.54 44.0754Z" fill="white"/>
<path d="M61.6542 13.8702L71.7887 19.9597L55.3028 98.4782L45.034 92.3081L61.6542 13.8702Z" fill="white"/>
<rect x="26" y="188.248" width="22" height="34" transform="rotate(-16.5 26 188.248)" fill="black"/>
<rect x="80.5291" y="182" width="22" height="34" transform="rotate(41.5 80.5291 182)" fill="black"/>
<rect x="135.529" y="30" width="22" height="34" transform="rotate(41.5 135.529 30)" fill="black"/>
<rect x="59" y="6.24835" width="22" height="34" transform="rotate(-16.5 59 6.24835)" fill="black"/>
<path d="M99.1394 123.66C99.8475 120.179 99.8899 117.62 99.2664 115.983C98.6913 114.356 97.316 113.321 95.1406 112.878C94.4638 112.74 93.753 112.646 93.0082 112.595C92.2732 112.496 91.5575 112.426 90.861 112.385L84.8712 141.826L74.0665 139.627L81.5612 102.79C82.5289 102.735 83.6416 102.71 84.8994 102.714C86.2153 102.68 87.5697 102.704 88.9627 102.786C90.4138 102.829 91.8743 102.95 93.3443 103.148C94.8241 103.299 96.265 103.516 97.6669 103.801C100.422 104.362 102.572 105.177 104.117 106.246C105.72 107.277 106.978 108.389 107.894 109.582C109.667 108.785 111.608 108.274 113.718 108.049C115.877 107.833 117.802 107.898 119.494 108.242C122.539 108.862 124.94 109.803 126.697 111.067C128.512 112.292 129.842 113.796 130.688 115.579C131.533 117.362 131.957 119.361 131.959 121.577C131.962 123.793 131.697 126.206 131.166 128.816L126.785 150.353L115.98 148.155L120.096 127.923C120.804 124.443 120.847 121.884 120.223 120.247C119.648 118.619 118.273 117.584 116.097 117.142C115.517 117.024 114.666 117.001 113.543 117.075C112.469 117.159 111.549 117.349 110.784 117.646C110.896 118.827 110.873 120.056 110.714 121.332C110.564 122.561 110.347 123.876 110.062 125.278L105.828 146.089L95.0232 143.891L99.1394 123.66Z" fill="white"/>
</g>
<defs>
<clipPath id="clip0_103_6">
<rect width="190" height="222" fill="white"/>
</clipPath>
</defs>
</svg>
